:SAMPLES-PER-SECOND 24
:FULLY-SPECIFIED
:DEGREES
263
root  -3.15191 39.3918 13.8969 -176.295 43.3851 -173.585
RightUpLeg  7.67205 -19.0757 -24.4757
RightLeg  24.8879 5.37927 2.50698
RightFoot  17.1704 -4.01951 16.2012
RightToes  -1.74623e-010 0 -2.59999e-017
Spine  1.21737 5.07624 3.93589
Spine1  15.8754 5.21714 -2.30882
HEad  -19.2956 32.0819 -16.8327
LeftShoulder1  2.08298 -3.73742 -22.4618
LeftArm  14.2786 9.91135 -41.5241
LeftForeArm  6.85342 -43.9473 -10.3338
LeftHand  -0.456692 3.17869 23.721
RightShoulder  3.19484 5.47907 29.6533
RightArm  11.613 16.9645 46.4674
RightForeArm  152.05 58.5688 162.154
RightHand  0.0791676 -9.94277 -3.25833
LeftUpLeg  -17.5609 12.9524 13.043
LeftLeg  13.043 42.8699 5.37772
LeftFoot  -3.9176 -0.542113 8.70308
LeftToes  -6.27559e-011 -2.10356e-011 8.24929e-012
264
root  -2.87178 39.0873 15.5396 -175.428 48.1658 -172.804
RightUpLeg  5.69369 -16.2795 -22.6237
RightLeg  24.9543 6.84163 3.25223
RightFoot  13.6548 -4.01174 18.4399
RightToes  -1.74623e-010 0 -2.59999e-017
Spine  2.31617 4.494 3.45578
Spine1  15.5566 4.83472 -2.8369
HEad  -21.6695 36.3923 -19.6229
LeftShoulder1  2.06226 -3.69982 -22.316
LeftArm  14.1175 8.55876 -41.4338
LeftForeArm  5.51813 -40.7205 -9.28453
LeftHand  -0.355825 3.56579 22.3203
RightShoulder  3.16212 5.45554 29.3754
RightArm  10.1346 16.9443 46.6814
RightForeArm  148.831 57.6556 162.468
RightHand  0.0841361 -9.34972 -3.80465
LeftUpLeg  -17.9634 14.4985 15.8246
LeftLeg  13.0698 41.7476 5.63544
LeftFoot  -3.98139 -0.485913 7.91531
LeftToes  -6.27559e-011 -2.10356e-011 8.24929e-012
265
root  -2.58319 38.5687 17.3236 -174.977 51.9184 -172.419
RightUpLeg  4.51071 -14.9985 -20.8106
RightLeg  25.5366 9.55453 4.73276
RightFoot  3.87731 -2.89868 21.8448
RightToes  -1.74623e-010 0 -2.59999e-017
Spine  3.7385 4.05456 2.59987
Spine1  14.9759 4.49801 -2.85741
HEad  -23.7834 39.3389 -22.0834
LeftShoulder1  2.08214 -3.69336 -22.6358
LeftArm  13.7975 6.9067 -41.0337
LeftForeArm  2.57308 -38.2881 -8.68842
LeftHand  -0.265169 3.9769 21.3267
RightShoulder  3.16949 5.47498 29.3811
RightArm  8.11475 16.3215 46.3442
RightForeArm  146.563 57.4377 162.419
RightHand  0.140695 -8.66796 -6.36446
LeftUpLeg  -18.8316 16.0045 18.4782
LeftLeg  13.2719 37.3897 5.37067
LeftFoot  -3.39791 -0.483071 7.24437
LeftToes  -6.27559e-011 -2.10356e-011 8.24929e-012
266
root  -2.34522 37.8017 19.2124 -175.332 54.4458 -173.103
RightUpLeg  2.57027 -15.4291 -19.2797
RightLeg  28.2506 11.5371 6.43875
RightFoot  -7.95043 -0.704073 21.5494
RightToes  -1.74623e-010 0 -2.59999e-017
Spine  5.08655 3.53994 1.68847
Spine1  14.8039 4.19747 -3.27618
HEad  -25.9953 41.097 -24.6973
LeftShoulder1  2.125 -3.69043 -23.2776
LeftArm  12.9763 4.55592 -40.2051
LeftForeArm  1.4825 -36.8872 -8.32746
LeftHand  -0.254677 3.97875 20.4494
RightShoulder  3.19877 5.50846 29.5792
RightArm  5.87016 15.244 45.8447
RightForeArm  144.994 58.0002 161.932
RightHand  0.217613 -8.4886 -9.39275
LeftUpLeg  -21.05 17.0182 19.9697
LeftLeg  14.2707 29.8405 5.32713
LeftFoot  -2.4181 -0.418679 5.57468
LeftToes  -6.27559e-011 -2.10356e-011 8.24929e-012
267
root  -2.22852 37.0889 20.9372 -176.487 56.0981 -174.817
RightUpLeg  -0.782863 -16.4073 -18.2355
RightLeg  33.0897 12.2603 8.25731
RightFoot  -16.3417 0.648848 17.294
RightToes  -1.74623e-010 0 -2.59999e-017
Spine  5.72032 2.51963 2.38321
Spine1  15.8965 4.12563 -5.81194
HEad  -29.2446 42.1676 -27.868
LeftShoulder1  2.17879 -3.70083 -24.0187
LeftArm  9.51354 2.8196 -39.0614
LeftForeArm  5.83927 -37.802 -8.34011
LeftHand  -0.291348 3.67512 19.2984
RightShoulder  3.26008 5.56468 30.0442
RightArm  4.49072 14.315 45.8275
RightForeArm  143.746 59.4473 160.842
RightHand  0.406811 -9.46855 -12.4115
LeftUpLeg  -23.0044 15.4333 20.3401
LeftLeg  14.439 21.0757 5.03601
LeftFoot  -3.35353 -0.238317 3.70226
LeftToes  -6.27559e-011 -2.10356e-011 8.24929e-012
268
root  -2.14206 36.8312 22.1736 -178.729 58.0847 -177.646
RightUpLeg  -3.46146 -16.3443 -18.1032
RightLeg  35.9502 13.2345 9.87688
RightFoot  -20.2354 1.02336 14.7888
RightToes  -1.74623e-010 0 -2.59999e-017
Spine  5.73399 1.64839 3.4755
Spine1  16.9899 4.35768 -8.6722
HEad  -32.1183 43.3972 -30.9894
LeftShoulder1  2.22597 -3.65399 -24.9176
LeftArm  4.59953 4.40298 -38.7499
LeftForeArm  11.0679 -41.1906 -9.08788
LeftHand  -0.306406 3.60432 19.5046
RightShoulder  3.35518 5.66641 30.6927
RightArm  4.87691 12.5402 45.5745
RightForeArm  142.396 60.9274 159.622
RightHand  0.924726 -12.323 -15.8192
LeftUpLeg  -22.1338 11.4591 20.0447
LeftLeg  11.8279 15.1258 4.64425
LeftFoot  -6.62637 -0.092443 3.19303
LeftToes  -6.27559e-011 -2.10356e-011 8.24929e-012
269
root  -1.98101 37.3263 22.7526 178.408 60.7585 178.993
RightUpLeg  -3.53799 -14.6921 -18.3514
RightLeg  32.9679 13.5483 9.09088
RightFoot  -19.2822 0.898226 14.7631
RightToes  -1.74623e-010 0 -2.59999e-017
Spine  5.26852 1.72671 3.52117
Spine1  16.8856 4.75594 -9.37238
HEad  -32.5523 45.2751 -32.8549
LeftShoulder1  2.25285 -3.56491 -25.7219
LeftArm  2.20599 9.39431 -40.1525
LeftForeArm  13.273 -44.5269 -10.1043
LeftHand  -0.379289 3.32252 20.9742
RightShoulder  3.45452 5.78052 31.3204
RightArm  6.30248 8.38322 43.9891
RightForeArm  142.517 61.6127 159.088
RightHand  1.51749 -16.1077 -16.664
LeftUpLeg  -18.8917 8.81365 18.5692
LeftLeg  7.77321 12.9601 4.00507
LeftFoot  -7.22283 -0.018881 1.57479
LeftToes  -6.27559e-011 -2.10356e-011 8.24929e-012
